<svg xmlns="http://www.w3.org/2000/svg" version="1.0" width="3813.067" height="1154.267" viewBox="0 0 2859.8 865.7"><path d="M491.8 2.7l-1.7 2.6-.4 13.1-.4 13-3.2 4-3.1 3.9-2.5 2.7-2.5 2.7-17.7.6-17.6.6-16.2 1.3-16.3 1.2-2.7 3.8-2.8 3.9-.7 3.9-.7 3.9 1.1 2 1.1 2 3.8 1L413 70l1.8 2.9 1.7 2.9v7.8l2 8 2 7.9c13.96 58.537 27.494 117.174 41.5 175.7l2.8 11.6-.6 1.6-.6 1.6H438l-84-2-84-2-68.5.1H133l-17.5 1.4-17.5 1.4-15 2-15 2.1-8 1.1-8 1.1-10 2-10 2-10.8 1.8-10.8 1.7-1 1-1 1 1.4 1.1 1.4 1.2 11.9 1 11.9 1 11 2 11 2 23.5 3.5 23.5 3.6 35 3 35 3 90 7.5 90 7.5 58.5 3.9 58.5 4h6l1.3.8 1.3.9c13.153 54 24.915 108.335 37 162.6l-1 1-1 1c-24.499-2.078-49.05-3.244-73.6-4.5-70.826 1.705-141.658 2.365-212.5 2.7l-84.5.5-20.4.5-20.4.4-1.3 1.3-1.3 1.3.8 1.3.7 1.2 15 5.1 14.9 5 12.5 3.5 12.5 3.5 18 4.9 18 4.8 17.5.5 17.5.5 3.5-1.1 3.5-1.2 1.9-3.9 1.9-3.8c29.78 1.542 59.591 1.557 89.4 1.9l1 .6.9.6c52.769 2.043 105.526 4.404 158.3 6.3l33.5 1.2 1.5 1.6 1.6 1.5 2.4 7.3 2.4 7.3 2.1 1.3 2.1 1.3c20.517 13.38 42.223 24.355 64 35.5l1.3 1 1.2 1v6.8h3.2l.5-1.9.5-2 1.6-.6 1.6-.6 14 1.1 14.1 1.1 10.5 1.5 10.5 1.5c175.725 36.462 353.081 51.577 504 83.6l7 1.5 1.3 1.1 1.3 1-.3 1.8-.3 1.8c-15.623 10.716-31.262 21.407-46.9 32.1h-15.4l-1.6.6-1.6.6v2.7l3.2.9 3.3.8.3 1.5.3 1.6c-4.58 5.368-9.036 10.837-13.5 16.3h-2.5l-7-6.9-6.9-6.9c-5.158-3.39-10.84-4.965-16.7-6.6l-8.4.2c-19.983-.278-26.756 9.64-36.1 25.7-.725 7.074-2.594 12.992-3.6 20.6-2.3 8.15-.823 15.329.6 23.3v11.3l1.9 7.4 1.9 7.4 4.2 7.2 4.2 7.1 1.9 1.8 2 1.8 19.7-.2 19.7-.3 5.6-.5c16.763-1.213 20.004-16.322 22.8-30.7l2.1-10.9 2-2.8 2-2.8v-13.7c-3.933-6.583-6.002-13.283-7.3-20.7l5.9-6c5.773-6.628 13.127-11.446 20.1-16.7 16.282-14.95 43.07-25.557 56.8-38.9l3-3 4.7-2 4.7-2 32.8 5.6c34.877 2.298 69.764 4.152 104.7 5.2 22.433.158 44.76 2.089 67.1 3.9 10.566.107 21.133.1 31.7.1l9 4.5c21.287 8.933 36.729 17.197 57.3 27.8l9.5 4.9 9.5 5 3.5 3.4 3.4 3.3-2.2 3-2.2 3-2 5.1-2 5.1c-.567 7.106-1.237 14.203-1.9 21.3.982 6.69 1.837 13.395 2.7 20.1 1.804 4.418 3.55 8.86 5.3 13.3l2.1 1.9 2 1.8 11.5.5 11.5.5 2.7 8 2.7 8 1.8 2.8 1.9 2.7 1.5.9 1.5.8 22.6-.4 22.6-.5c2.141-.72 4.321-1.306 6.5-1.9 9.557-10.064 13.39-16.878 16-30.8l1.9-9.7-.9-20.5-.9-20.4c-1.27-5.634-4.546-10.912-6.9-15-5.803-5.719-11.05-11.81-18.7-15.3-3.97-.72-7.934-1.46-11.9-2.2h-10.3c-5.7 1.393-9.234 3.42-13.8 7l-5.2 4h-5c-2.542-2.17-5.483-4.191-8.2-5.1l-3-1.1-5.7 2.6-5.6 2.6h-2.9l-.5-1.5-.6-1.5 2.6-3.4 2.6-3.4 1.6-1.6 1.5-1.6h4.4l2.5-2 2.5-2h3.3l1.2-1.6 1.3-1.5-2.2-2.2-2.2-2.2-5.5.1h-5.5l-.5-2.3-.6-2.3 1.6-2.5 1.6-2.5 5-2.5 4.9-2.5h3.9l2.3-1.9 2.3-1.8-1.3-3-1.2-3-2.6-1.2-2.6-1.2 1.1-1.1 1.1-1.1c12.502-3.756 25.182-4.96 38.1-6 8.378-6.49 18.831-9.54 27.9-12.8 16.8-10.1 33.354-21.025 45.8-35.2l1.5.5 1.5.6.6 7.8.7 7.7v18.8l5 5 2.3-.6 2.2-.7c1.336-1.23 2.616-2.516 3.9-3.8.401-18.264.535-36.533.7-54.8l5.6-7.9c14.332-16.73 21.936-37.119 31-57.1 1.517-1.975 2.904-4.04 4.3-6.1 8.235-5.919 16.416-11.912 24.6-17.9l2.2-.6 2.1-.7 2.2 1.1 2.1 1.2 7 1.9 6.9 1.9 16.2 6.9 16.2 6.9 14.5 4.5 14.5 4.5 6 1.3 6 1.2 9.2.4 9.1.5 6.8-1.1 6.8-1 2.5-2.6 2.6-2.5v-26.6l-1.7-2.6-1.7-2.6-4.8-1.1-4.8-1-42-.5-42-.4-5.4-1.6-5.3-1.5-.5-.5-.5-.5.5-1.5.6-1.5c85.631-62.856 177.32-128.976 252.2-183.2l1.2-.4 1.2-.4 31-2.1c235.016-16.005 445.208-31.467 687.5-48l42.5-3 15.3-1.5 15.2-1.6 16-4.8 16-4.9 2.5-1.6 2.6-1.7 1.1-2.4 1.1-2.4-1.8-2.7-1.7-2.6-8.6-4-8.7-4-10.5-2-10.5-1.9h-84l-39.5 1-39.5 1-116.5 5.5c-332.426 15.742-682.97 32.253-982 46.6H1542c-.886-1.3-1.69-2.651-2.5-4h-8.8l-6 5c-28.536 1.663-57.129 2.086-85.7 2.8-1.732-1.703-3.518-3.35-5.3-5-2.699-.342-5.4-.67-8.1-1-2.378.375-4.738.84-7.1 1.3-1.697 1.57-3.399 3.135-5.1 4.7-73.296.081-145.228 1.462-218.4 1-1.666-1.637-3.384-3.216-5.1-4.8-3.633.408-7.266.804-10.9 1.2-1.488.985-2.994 1.942-4.5 2.9-164.208-7.354-328.646-7.264-492.9-12.9l-20.5-.7-2.6-4.5-2.6-4.5c-32.27-61.648-64.632-123.247-96.7-185L549.8 83l-9.5-17.5-2.6-3.4-2.7-3.4-2.5-3.4-2.5-3.5-6-3-6-3.1-1.5-.7-1.5-.7-.6-4.8-.5-4.9-1.2-.4-1.2-.4-2.2-1.8-2.3-1.8-.5-10.6-.5-10.5-4.5-4.6-4.4-4.5h-3.6zm1495.5 339.5l1.2 1.2v4.1l-1.8 2.7-1.7 2.7c-84.229 61.425-148.84 108.63-228 166.4l-3 1.8-2.9 1.8c-6.902-1.174-13.898-3.847-19.6-4.9v-7.5c-.949-4.918-2.028-9.808-3.1-14.7-1.715-3.907-4.093-7.846-6.5-10.7-2.093-3.164-5.227-4.915-8.3-7-4.864-3.305-9.757-6.564-14.6-9.9-27.266-16.736-57.001-26.58-88.5-31.2l-7.5-1.2-2.1-.4-2.2-.4-2-5.2-2.1-5.3c-7.475-20.86-15.54-41.482-23.9-62l1.2-1.2 1.1-1.1c54.533-.816 109.016-2.86 163.5-5.2 80.91-3.113 161.69-8.727 242.5-13.7l3.6-.2 3.5-.1zM825 366.1l2 2.4 2 2.3c38.35 24.619 79.394 51.025 113 72.5l2.4 2.3 2.5 2.3-3 1.2-2.9 1.2c-23.402.542-46.689-1.639-70-3.4l-15-2.5-15-2.6-.8-.5-.7-.4-8.3-2.4-8.2-2.3-4.7-2.1-4.6-2.1c-29.222-8.063-58.428-16.21-87.7-24.1l-1.7-.5-1.7-.5c-6.23-11.15-12.572-22.238-18.6-33.5l-3.8-7.1.7-1.8.7-1.8c41.136 1.025 82.266 2.303 123.4 3.4zm171.9 5.1l1.6.8 1.6.9 4.7 11.3 4.6 11.3 5.6 13.5 5.6 13.5.7 5.5.8 5.6-.8 3-.8 3.1-1.7 1.5-1.8 1.6-8.8 1.1-8.8 1.2-.8-.5-.8-.5-9.4 1-9.3.9-4.1-2.8c-35.603-27.087-79.906-48.02-109.9-71.7l-1.9-1.4.6-1.6.6-1.5c44.135 2.147 88.332 2.947 132.5 4.2zm45.6 1.3l21.5.6 4.2 1.9 4.2 1.8 1.5 3.1 1.6 3v5.7l-3.6 3.5-3.6 3.4-17 18.7-17 18.8h-3.6l-4-7.3-3.9-7.2-4.6-10.5-4.5-10.5-4.1-10.2-4.1-10.1v-4.9l.7-.7.7-.6 7 .5 7.1.5zm475.6 344l2.4 1.5v5.3l-6 5.9-6 5.9v3.9h-4.6c-11.11-6.847-19.746-12.451-30.4-18v-3l2.3-.4 2.2-.5c7.67-.36 15.335-.833 23-1.3l4-.8 4-.9 3.4.4 3.3.4zm14.2.7l1.2 1.2v8.7l-1.1 2.2-1.1 2.2-3.6 3.7-3.6 3.8h-5.4l-.6-1.6-.6-1.5 1-1.9.9-1.8 1.6-.6 1.6-.6 1.4-3.5 1.5-3.4v-5.7l1.2-1.2 1.2-1.2h3.2zm-7.8 30.3l1.2 1.4-.4 1.8-.3 1.8h-6l-.3-1.8-.4-1.8 1.2-1.4 1.2-1.5h2.6zM1.5 305L0 306h5.4l.6-1 .6-1H3z"/></svg>